<?xml version="1.0" encoding="utf-8"?>
<!-- Generator: Adobe Illustrator 24.0.0, SVG Export Plug-In . SVG Version: 6.00 Build 0)  -->
<svg version="1.1" id="Layer_1" xmlns="http://www.w3.org/2000/svg" xmlns:xlink="http://www.w3.org/1999/xlink" x="0px" y="0px"
	 viewBox="0 0 274 265" style="enable-background:new 0 0 274 265;" xml:space="preserve">
<style type="text/css">
	.st0{display:none;fill:#FFFFFF;}
</style>
<g>
	<path d="M215.23,14.4H58.77c-23.72,0-42.9,19.18-42.9,42.9v150.4c0,23.72,19.18,42.9,42.9,42.9h156.45
		c23.72,0,42.9-19.18,42.9-42.9V57.3C258.12,33.58,238.95,14.4,215.23,14.4z M242.8,197.38c0,20.62-16.67,37.3-37.3,37.3H69.48
		c-20.62,0-37.3-16.67-37.3-37.3V66.62c0-20.62,16.67-37.3,37.3-37.3H205.5c20.62,0,37.3,16.67,37.3,37.3V197.38z"/>
	<path class="st0" d="M205.5,29.33H69.48c-20.62,0-37.3,16.67-37.3,37.3v130.75c0,20.62,16.67,37.3,37.3,37.3H205.5
		c20.62,0,37.3-16.67,37.3-37.3V66.62C242.8,46,226.12,29.33,205.5,29.33z"/>
</g>
<g id="Xd">
	<path d="M142.93,83.3l-26.33,43.44l28.08,46.07c0.18,0.35,0.26,0.7,0.18,1.05c-0.09,0.35-0.44,0.09-0.97,0.18h-20.1
		c-1.4,0-2.37-0.09-2.98-0.97c-1.84-3.69-3.77-7.28-5.62-10.97c-1.84-3.6-3.86-7.28-5.97-11.06s-4.21-7.55-6.32-11.41h-0.18
		c-1.84,3.77-3.86,7.55-5.88,11.32c-2.02,3.77-4.04,7.55-5.97,11.23c-2.02,3.69-4.04,7.46-6.06,11.06
		c-0.35,0.88-1.05,0.97-2.02,0.97H63.51c-0.35,0-0.61,0.18-0.61-0.26c-0.09-0.35,0-0.7,0.18-0.97l27.29-44.76L63.78,83.21
		c-0.26-0.35-0.35-0.7-0.18-0.88c0.18-0.26,0.53-0.35,0.88-0.35H84.4c0.44,0,0.88,0.09,1.23,0.18c0.35,0.18,0.61,0.44,0.88,0.79
		c1.67,3.77,3.6,7.55,5.62,11.32c2.11,3.77,4.12,7.46,6.32,11.14c2.11,3.69,4.04,7.37,5.88,11.14h0.18
		c1.84-3.86,3.77-7.63,5.7-11.32s3.95-7.37,5.97-11.06c2.02-3.69,3.95-7.46,5.88-11.06c0.09-0.35,0.26-0.7,0.53-0.88
		c0.35-0.18,0.7-0.26,1.14-0.18h18.52c0.44-0.09,0.88,0.18,0.97,0.61C143.28,82.77,143.11,83.12,142.93,83.3L142.93,83.3z"/>
	<path d="M183.48,175.88c-6.49,0.09-12.99-1.23-18.87-3.95c-5.53-2.54-10.09-6.76-13.25-11.93c-3.25-5.35-4.83-12.02-4.83-20.01
		c-0.09-6.49,1.58-12.9,4.83-18.52c3.33-5.7,8.16-10.44,13.95-13.6c6.14-3.42,13.51-5.09,22.2-5.09c0.44,0,1.05,0,1.84,0.09
		s1.67,0.09,2.72,0.18V75.31c0-0.61,0.26-0.97,0.88-0.97h17.81c0.44-0.09,0.79,0.26,0.88,0.61c0,0.09,0,0.18,0,0.18v83.54
		c0,1.58,0.09,3.33,0.18,5.27c0.18,1.84,0.26,3.6,0.35,5.09c0,0.61-0.26,1.14-0.88,1.4c-4.56,1.93-9.39,3.33-14.3,4.21
		C192.51,175.44,188.04,175.88,183.48,175.88z M192.08,158.33v-38.61c-0.79-0.18-1.58-0.35-2.37-0.44c-0.97-0.09-1.93-0.18-2.9-0.18
		c-3.42,0-6.84,0.7-9.92,2.28c-2.98,1.49-5.53,3.69-7.46,6.49c-1.93,2.81-2.9,6.58-2.9,11.14c-0.09,3.07,0.44,6.14,1.49,9.04
		c0.88,2.37,2.19,4.48,3.95,6.23c1.67,1.58,3.69,2.81,5.97,3.51c2.37,0.79,4.83,1.14,7.28,1.14c1.32,0,2.54-0.09,3.69-0.18
		C190.06,158.85,191.02,158.68,192.08,158.33z"/>
</g>
</svg>
